<svg width="129" height="24" viewBox="0 0 129 24" fill="none" xmlns="http://www.w3.org/2000/svg">
<path d="M0.495972 0.6521V23.5001H3.53597V13.0361H15.568V23.5001H18.608V0.6521H15.568V10.4761H3.53597V0.6521H0.495972ZM23.5898 0.6521V23.5001H39.4618V20.9401H26.6298V13.0361H38.5018V10.4761H26.6298V3.2121H39.3658V0.6521H23.5898ZM43.1523 0.6521V23.5001H58.2882V20.9401H46.1923V0.6521H43.1523ZM66.811 14.1561L75.547 0.6521H72.091L65.403 11.5321L58.555 0.6521H54.939L63.771 14.1561V23.5001H66.811V14.1561ZM78.121 0.6521V23.5001H81.161V13.0361H91.657V10.4761H81.161V3.2121H93.129V0.6521H78.121ZM96.496 0.6521V23.5001H111.632V20.9401H99.536V0.6521H96.496ZM120.155 14.1561L128.891 0.6521H125.435L118.747 11.5321L111.899 0.6521H108.283L117.115 14.1561V23.5001H120.155V14.1561Z" fill="black"/>
</svg>
