<svg width="18" height="18" viewBox="0 0 18 18" fill="none" xmlns="http://www.w3.org/2000/svg">
<path d="M17.2169 6.29584L12.2599 5.82991C11.9474 5.80167 11.6775 5.60401 11.5497 5.30751L9.77426 1.02946C9.49019 0.323513 8.48173 0.323513 8.19766 1.02946L6.43642 5.30751C6.32279 5.60401 6.03872 5.80167 5.72624 5.82991L0.769187 6.29584C0.0306005 6.36643 -0.267675 7.28417 0.286265 7.77833L4.02181 11.0398C4.26327 11.2516 4.36269 11.5622 4.29168 11.8728L3.16959 16.4474C2.99915 17.1674 3.78035 17.7604 4.43371 17.3792L8.56695 14.9649C8.83682 14.8096 9.1635 14.8096 9.43337 14.9649L13.5666 17.3792C14.22 17.7604 15.0012 17.1816 14.8307 16.4474L13.7229 11.8728C13.6518 11.5622 13.7513 11.2516 13.9927 11.0398L17.7283 7.77833C18.268 7.28417 17.9555 6.36643 17.2169 6.29584Z" fill="#FC9B09"/>
</svg>
